# xmcd
#
# Track frame offsets:
#	150
#	3291
#	21061
#	38900
#	58310
#	77415
#	94202
#	119560
#	139121
#	160071
#	180469
#	198382
#	220864
#	236944
#
# Disc length: 3813 seconds
#
# Revision: 0
# Processed by: cddbd v1.5.2PL0 Copyright (c) Steve Scherf et al.
# Submitted via: Jack! The Knife 16.9 Purrrrfect
#
DISCID=bb0ee30e
DTITLE=Gotthard - Bang!
DYEAR=2014
DGENRE=Hard Rock
TTITLE0=Let Me In Katie
TTITLE1=Bang!
TTITLE2=Get Up 'N' Move On
TTITLE3=Feel What I Feel
TTITLE4=C'est La Vie
TTITLE5=Jump The Gun
TTITLE6=Spread Your Wings
TTITLE7=I Won't Look Down
TTITLE8=My Belief
TTITLE9=Maybe
TTITLE10=Red On A Sleeve
TTITLE11=What You Get
TTITLE12=Mr. Ticket Man
TTITLE13=Thank You
EXTD=Leo Leoni and Charlie Bauerfeind
EXTT0=
EXTT1=
EXTT2=
EXTT3=
EXTT4=
EXTT5=
EXTT6=
EXTT7=
EXTT8=
EXTT9=
EXTT10=
EXTT11=
EXTT12=
EXTT13=
PLAYORDER=
